<svg width="400" height="400" viewBox="0 0 400 400" fill="none" xmlns="http://www.w3.org/2000/svg">
<g clip-path="url(#clip0_2_4)">
<rect width="400" height="400" fill="black"/>
<path d="M74.2883 72.4C75.4883 62.5333 78.6883 55.4667 83.8883 51.2C89.2216 46.8 97.0883 44.6 107.488 44.6C114.288 44.6 123.955 45.4667 136.488 47.2C149.022 48.8 158.022 49.6 163.488 49.6C172.155 49.6 178.822 48.6 183.488 46.6C179.622 55.6667 173.022 62.1333 163.688 66V151.2C167.822 147.467 172.022 142.8 176.288 137.2C173.355 152 167.155 163.667 157.688 172.2C148.355 180.733 137.222 185 124.288 185C110.022 185 98.2883 180.4 89.0883 171.2C79.4883 161.733 74.6883 149.4 74.6883 134.2C74.6883 107.533 85.2216 87 106.288 72.6C96.555 87.4 91.6883 102.533 91.6883 118C91.6883 132.133 95.0216 143.333 101.688 151.6C108.355 159.867 116.955 164 127.488 164C138.288 164 149.422 160.467 160.888 153.4V66.8C155.422 68.1333 150.822 68.8 147.088 68.8C144.022 68.8 136.422 68.1333 124.288 66.8C112.155 65.4667 101.755 64.8 93.0883 64.8C83.6216 64.8 77.3549 67.3333 74.2883 72.4ZM117.888 155.8C120.955 152.733 122.488 147.533 122.488 140.2V91.2L115.488 94.8V91C123.622 87 132.222 81.8 141.288 75.4V125.6C141.288 133.2 139.555 139.2 136.088 143.6C132.755 147.867 126.688 151.933 117.888 155.8ZM228.177 184C228.844 177.467 231.711 171.8 236.777 167C241.977 162.2 247.244 159.8 252.577 159.8C256.844 159.8 260.777 161.133 264.377 163.8C264.511 163.8 267.911 166.8 274.577 172.8C279.511 177.333 284.311 179.6 288.977 179.6C300.311 179.6 305.977 170.933 305.977 153.6V82.6C305.977 75 306.977 69.4 308.977 65.8C312.177 60.2 319.244 54.4 330.177 48.4C325.911 52.6667 323.777 58.8 323.777 66.8V148.8C323.777 172.533 307.511 184.4 274.977 184.4C269.377 184.4 263.644 183 257.777 180.2C252.044 177.4 248.111 176 245.977 176C240.244 176 234.311 178.667 228.177 184ZM295.177 125C295.177 135.4 293.777 142.933 290.977 147.6C287.644 153.333 281.244 157.067 271.777 158.8C275.511 155.6 277.377 148.733 277.377 138.2V119.6C276.577 119.467 275.511 119.4 274.177 119.4C267.511 119.4 263.577 121.867 262.377 126.8C260.244 124.4 259.177 121.333 259.177 117.6C259.177 112.4 260.511 108.333 263.177 105.4C265.977 102.333 269.777 100.8 274.577 100.8C274.844 100.8 275.177 100.8 275.577 100.8C276.111 100.8 276.511 100.8 276.777 100.8V96.6C276.777 90.2 278.644 85 282.377 81C285.711 77.4 291.711 73.6 300.377 69.6C296.911 74 295.177 81.5333 295.177 92.2V125ZM244.777 66.8C247.044 60 250.511 54.6667 255.177 50.8C259.977 46.8 265.377 44.8 271.377 44.8C274.311 44.8 278.711 45.4667 284.577 46.8C290.577 48.1333 295.177 48.8 298.377 48.8C302.244 48.8 305.844 48.0667 309.177 46.6C302.777 58.6 294.244 64.6 283.577 64.6C281.044 64.6 277.044 64.1333 271.577 63.2C266.244 62.1333 262.044 61.6 258.977 61.6C255.244 61.6 250.511 63.3333 244.777 66.8ZM51.268 356C56.2013 348.133 63.6013 341.733 73.468 336.8C83.3346 331.867 93.868 329.4 105.068 329.4C117.735 329.4 128.401 332.667 137.068 339.2C146.535 329.333 152.801 322.267 155.868 318C160.535 311.733 162.868 305.933 162.868 300.6C162.868 293.133 159.335 287.733 152.268 284.4C145.735 281.2 134.401 278.867 118.268 277.4L113.268 285.8C126.868 286.467 136.401 288.067 141.868 290.6C148.001 293.4 151.068 298.133 151.068 304.8C151.068 312.667 147.468 318.933 140.268 323.6C140.935 321.2 141.268 319.267 141.268 317.8C141.268 313.133 138.068 309.733 131.668 307.6C126.468 305.867 116.868 304.4 102.868 303.2C94.468 318.8 86.0013 326.6 77.468 326.6C74.268 326.6 71.5346 325.533 69.268 323.4C67.1346 321.267 66.068 318.6 66.068 315.4C66.068 312.6 66.9346 310.267 68.668 308.4C70.4013 306.533 72.6013 305.6 75.268 305.6C80.3346 305.6 82.868 308.467 82.868 314.2C82.868 316.6 81.868 319.067 79.868 321.6C80.0013 321.6 80.2013 321.667 80.468 321.8C80.868 321.8 81.1346 321.8 81.268 321.8C87.0013 321.8 93.1346 315.467 99.668 302.8C86.3346 301.867 76.868 299.867 71.268 296.8C65.0013 293.467 61.868 288.333 61.868 281.4C61.868 275.4 64.2013 270 68.868 265.2V266C68.868 272 72.268 276.467 79.068 279.4C85.068 281.933 95.6013 283.867 110.668 285.2L115.068 276.8C100.668 275.867 90.4013 273.8 84.268 270.6C77.6013 267.133 74.268 261.733 74.268 254.4C74.268 245.2 78.2013 237.267 86.068 230.6C94.468 223.533 105.001 220 117.668 220C134.201 220 145.668 224.467 152.068 233.4L157.868 229.6L159.068 232.4C148.001 239.733 138.535 248.867 130.668 259.8C146.668 260.6 158.268 263.2 165.468 267.6C172.801 271.867 176.468 278.733 176.468 288.2C176.468 294.2 174.601 300.267 170.868 306.4C168.068 311.2 163.135 317.4 156.068 325C151.001 330.333 146.001 335.667 141.068 341C134.801 347.8 129.535 354.267 125.268 360.4C113.001 350.533 99.068 345.6 83.468 345.6C73.068 345.6 62.3346 349.067 51.268 356ZM127.668 259.6L133.668 251.2C128.068 235.467 119.001 227.6 106.468 227.6C100.201 227.6 95.0013 229.2 90.868 232.4C86.868 235.467 84.868 239.067 84.868 243.2C84.868 252.667 99.1346 258.133 127.668 259.6ZM271.685 309.4C271.685 315.8 270.685 320.533 268.685 323.6C265.885 327.733 259.352 332.8 249.085 338.8C252.418 334.4 254.085 328.6 254.085 321.4V296.4C252.218 296.267 250.285 296.2 248.285 296.2C242.285 296.2 239.085 298.8 238.685 304C236.685 300.8 235.685 296.6 235.685 291.4C235.685 286.2 236.885 282.533 239.285 280.4C241.552 278.667 245.285 277.8 250.485 277.8C251.552 277.8 252.752 277.867 254.085 278V272.2C254.085 265.8 255.752 260.867 259.085 257.4C262.418 253.8 268.752 250.067 278.085 246.2C273.818 251.533 271.685 257.4 271.685 263.8V309.4ZM235.885 244.4C236.818 237.6 239.685 231.933 244.485 227.4C249.285 222.733 254.418 220.4 259.885 220.4C262.285 220.4 265.418 221.467 269.285 223.6C273.285 225.6 276.618 226.6 279.285 226.6C283.552 226.6 287.818 224.667 292.085 220.8C290.752 226.8 287.618 232.067 282.685 236.6C277.752 241 273.018 243.2 268.485 243.2C266.618 243.2 263.418 242.533 258.885 241.2C254.485 239.867 251.085 239.2 248.685 239.2C244.685 239.2 240.418 240.933 235.885 244.4ZM240.685 361.2C250.552 342.8 265.018 333.6 284.085 333.6C295.952 333.6 305.818 336.467 313.685 342.2L318.685 337.4C315.352 313 310.885 298 305.285 292.4L300.285 294.8C300.418 296 300.485 297.067 300.485 298C300.485 307.2 298.752 313.933 295.285 318.2C291.818 322.333 285.018 325.8 274.885 328.6C278.218 325.933 280.418 322.733 281.485 319C282.152 316.467 282.485 312.133 282.485 306V258.2C282.485 252.733 283.218 248.667 284.685 246C286.285 243.2 289.485 240.267 294.285 237.2C306.018 229.733 315.752 224.267 323.485 220.8C326.418 220.8 329.418 223.133 332.485 227.8C335.952 233 337.685 239.133 337.685 246.2C337.685 254.733 335.418 262.733 330.885 270.2C326.352 277.667 320.018 283.667 311.885 288.2C318.552 289.133 323.485 291.733 326.685 296C330.018 300.133 332.418 306.6 333.885 315.4C335.352 324.067 337.018 330.267 338.885 334C341.018 338.133 343.952 340.2 347.685 340.2C348.352 340.2 349.285 340 350.485 339.6C345.152 348.133 341.952 355.4 340.885 361.4C328.885 359.933 321.685 352.733 319.285 339.8C315.685 342.867 309.618 350.067 301.085 361.4C292.818 354.733 282.552 351.4 270.285 351.4C260.818 351.4 250.952 354.667 240.685 361.2ZM300.085 292.2C313.952 284.867 320.885 274.667 320.885 261.6C320.885 253.733 319.218 246.667 315.885 240.4C313.218 235.333 311.085 232.8 309.485 232.8C303.218 232.8 300.085 239.467 300.085 252.8V292.2Z" fill="white"/>
</g>
<defs>
<clipPath id="clip0_2_4">
<rect width="400" height="400" fill="white"/>
</clipPath>
</defs>
</svg>
